<svg xmlns="http://www.w3.org/2000/svg" width="40px" viewBox="0 0 50.8 42.8">
    <desc>An arrow pointing left</desc>
    <path d="M29.4,42.8c-0.3,0-0.5-0.1-0.7-0.3c-0.4-0.4-0.4-1,0-1.4l19.7-19.7L28.7,1.7c-0.4-0.4-0.4-1,0-1.4
      s1-0.4,1.4,0l20.4,20.4c0.2,0.2,0.3,0.4,0.3,0.7s-0.1,0.5-0.3,0.7L30.1,42.5C29.9,42.7,29.6,42.8,29.4,42.8z" fill="#D2D2D2"></path>
    <path d="M49.8,22.4H1c-0.6,0-1-0.4-1-1c0-0.6,0.4-1,1-1h48.8c0.6,0,1,0.4,1,1C50.8,21.9,50.3,22.4,49.8,22.4z" fill="#D2D2D2"></path>
</svg>