<svg xmlns="http://www.w3.org/2000/svg" viewBox="0 0 32.1 27.7">
    <desc>A bar chart with a magnifying glass near it</desc>
    <path d="M31.3,27.7H0.8C0.3,27.7,0,27.4,0,27s0.3-0.8,0.8-0.8h30.6c0.4,0,0.8,0.3,0.8,0.8S31.7,27.7,31.3,27.7z" fill="white"></path>
    <path d="M9.9,27.7H4.1c-0.4,0-0.8-0.3-0.8-0.8V9.2c0-0.4,0.3-0.8,0.8-0.8h5.7c0.4,0,0.8,0.3,0.8,0.8V27
      C10.6,27.4,10.3,27.7,9.9,27.7z M4.9,26.2h4.2V9.9H4.9V26.2z" fill="white"></path>
    <rect x="22.4" y="16.1" width="5.7" height="10.8" fill="white"></rect>
    <path d="M28.1,27.7h-5.7c-0.4,0-0.8-0.3-0.8-0.8V16.1c0-0.4,0.3-0.8,0.8-0.8h5.7c0.4,0,0.8,0.3,0.8,0.8V27
      C28.9,27.4,28.5,27.7,28.1,27.7z M23.1,26.2h4.2v-9.3h-4.2V26.2z" fill="white"></path>
    <path d="M19.1,27.7h-5.7c-0.4,0-0.8-0.3-0.8-0.8V3.2c0-0.4,0.3-0.8,0.8-0.8h4.2c0.4,0,0.8,0.3,0.8,0.8S18,4,17.5,4
      h-3.4v22.3h4.2v-16c0-0.4,0.3-0.8,0.8-0.8s0.8,0.3,0.8,0.8V27C19.8,27.4,19.5,27.7,19.1,27.7z" fill="white"></path>
    <path d="M22.1,11.9c-1.6,0-3.1-0.6-4.2-1.7s-1.7-2.6-1.7-4.2c0-1.6,0.6-3.1,1.7-4.2S20.5,0,22.1,0
      c1.6,0,3.1,0.6,4.2,1.7S28,4.4,28,5.9c0,1.6-0.6,3.1-1.7,4.2S23.6,11.9,22.1,11.9z M22.1,1.5c-1.2,0-2.3,0.5-3.1,1.3
      c-1.7,1.7-1.7,4.5,0,6.3c0.8,0.8,2,1.3,3.1,1.3c1.2,0,2.3-0.5,3.1-1.3c0.8-0.8,1.3-2,1.3-3.1c0-1.2-0.5-2.3-1.3-3.1l0,0
      C24.4,2,23.2,1.5,22.1,1.5z" fill="white"></path>
    <path d="M31.2,15.9c-0.2,0-0.4-0.1-0.5-0.2l-5.5-5.5c-0.3-0.3-0.3-0.8,0-1.1s0.8-0.3,1.1,0l5.5,5.5
      c0.3,0.3,0.3,0.8,0,1.1C31.6,15.8,31.4,15.9,31.2,15.9z" fill="white"></path>
</svg>