<svg xmlns="http://www.w3.org/2000/svg" height="96px" viewBox="0 0 31 31">
    <desc>A climbing graph in a magnifying glass</desc>
    <path d="M12.5,25.1c-3.3,0-6.5-1.3-8.9-3.7c-4.9-4.9-4.9-12.8,0-17.7C6,1.3,9.2,0,12.5,0s6.5,1.3,8.9,3.7
      c2.4,2.4,3.7,5.5,3.7,8.9s-1.3,6.5-3.7,8.9C19,23.8,15.9,25.1,12.5,25.1z M12.5,1.5c-2.8,0-5.7,1.1-7.8,3.2C0.4,9,0.4,16,4.7,20.3
      s11.3,4.3,15.6,0c2.1-2.1,3.2-4.9,3.2-7.8s-1.1-5.7-3.2-7.8C18.2,2.6,15.4,1.5,12.5,1.5z" fill="white"></path>
    <path d="M30.2,31c-0.2,0-0.4-0.1-0.5-0.2l-9.4-9.4c-0.3-0.3-0.3-0.8,0-1.1s0.8-0.3,1.1,0l9.4,9.4
      c0.3,0.3,0.3,0.8,0,1.1C30.6,30.9,30.4,31,30.2,31z" fill="white"></path>
    <path d="M5.4,16.6c-0.2,0-0.3,0-0.5-0.2c-0.3-0.2-0.4-0.7-0.1-1.1l3.4-4.5c0.1-0.2,0.3-0.3,0.5-0.3
      c0.2,0,0.4,0.1,0.6,0.2l3.3,3l5.9-5.7c0.3-0.3,0.8-0.3,1.1,0c0.3,0.3,0.3,0.8,0,1.1l-6.4,6.2c-0.3,0.3-0.7,0.3-1,0l-3.2-2.9L6,16.3
      C5.8,16.5,5.6,16.6,5.4,16.6z" fill="white"></path>
    <path d="M19.2,11.6C19.2,11.6,19.1,11.6,19.2,11.6c-0.5,0-0.8-0.4-0.7-0.8l0.1-1.8l-1.8,0.1c-0.4,0-0.8-0.3-0.8-0.7
      c0-0.4,0.3-0.8,0.7-0.8l2.6-0.2c0.2,0,0.4,0.1,0.6,0.2c0.2,0.2,0.2,0.4,0.2,0.6l-0.1,2.6C19.9,11.3,19.6,11.6,19.2,11.6z" fill="white"></path>
</svg>