<svg xmlns="http://www.w3.org/2000/svg" viewBox="0 0 38.7 35.2">
    <desc>A credit card</desc>
    <path d="M37,23.6c-0.1,0.1-0.2,0.2-0.4,0.2H2c-0.1,0-0.3-0.1-0.4-0.2c-0.1-0.1-0.2-0.2-0.2-0.4V9.9h35.7v13.3
      C37.2,23.3,37.1,23.5,37,23.6 M1.6,1.6C1.7,1.5,1.9,1.5,2,1.5h34.6c0.1,0,0.3,0.1,0.4,0.2c0.1,0.1,0.2,0.2,0.2,0.4v1.7H1.5V2.1
      C1.5,1.9,1.5,1.7,1.6,1.6 M37.2,8.4H1.5V5.2h35.7V8.4z M38.7,9.9L38.7,9.9V3.7V2c0-0.5-0.2-1.1-0.6-1.4C37.7,0.2,37.2,0,36.7,0H2.1
      C1.6,0,1,0.2,0.7,0.6C0.2,0.9,0,1.5,0,2v21.2c0,0.5,0.2,1.1,0.6,1.4C1,25,1.5,25.2,2,25.2h34.6c0.5,0,1.1-0.2,1.4-0.6
      c0.4-0.4,0.6-0.9,0.6-1.4L38.7,9.9z" fill="white" transform="translate(0 10)"></path>
    <path d="M5,14.2h28.6v2.9H5V14.2z M34.9,13c-0.1-0.1-0.3-0.2-0.5-0.2H4.3c-0.4,0-0.7,0.3-0.7,0.8V18
      c0,0.2,0.1,0.4,0.2,0.5c0.1,0.1,0.3,0.2,0.5,0.2h30.1c0.4,0,0.7-0.3,0.7-0.8v-4.4C35.1,13.3,35.1,13.1,34.9,13" fill="white" transform="translate(0 10)"></path>
</svg>