<svg xmlns="http://www.w3.org/2000/svg" viewBox="0 0 31.8 31.8">
    <desc>A painter's palette</desc>
    <path d="M23.2,7.2c-0.2,0.2-0.6,0.2-0.9,0.2c-0.6-0.1-1.1-0.4-1.1-0.8S21.7,6,22.3,6h0.2c0.4,0,0.7,0.2,0.9,0.4
      c0.1,0.1,0.2,0.3,0.2,0.5C23.5,6.9,23.3,7.1,23.2,7.2 M22.5,4.4c-1.5-0.1-2.8,0.7-2.9,2c-0.1,1.2,1,2.3,2.5,2.5h0.3
      c0.6,0,1.1-0.2,1.6-0.4c0.6-0.4,0.9-0.9,1-1.6c0.1-0.6-0.2-1.3-0.7-1.7C23.8,4.7,23.2,4.5,22.5,4.4" fill="white"></path>
    <path d="M8.7,9.7c-1,0-1.8-0.5-1.8-1.2c0-0.6,0.8-1.2,1.8-1.2s1.8,0.5,1.8,1.2C10.5,9.2,9.7,9.7,8.7,9.7 M8.7,5.9
      c-1.8,0-3.3,1.2-3.3,2.7s1.5,2.6,3.3,2.6c1.8,0,3.3-1.2,3.3-2.7S10.6,5.9,8.7,5.9" fill="white"></path>
    <path d="M15.5,6.7c-0.8,0-1.4-0.5-1.4-0.9c0-0.4,0.6-0.9,1.4-0.9c0.8,0,1.4,0.5,1.4,0.9C16.9,6.2,16.3,6.7,15.5,6.7
       M15.5,3.4c-1.6,0-2.9,1.1-2.9,2.4c0,1.3,1.3,2.4,2.9,2.4c1.6,0,2.9-1.1,2.9-2.4C18.4,4.5,17.1,3.4,15.5,3.4" fill="white"></path>
    <path d="M24.8,16.9c-1.8,0-3.1-0.3-4-0.4c-0.7-0.1-1.3-0.3-1.9-0.2c-1.2,0.1-2,0.9-2,2.1c0,1,0.8,1.6,1.5,2.1
      c0.4,0.3,0.8,0.6,0.8,0.9c0,0.2-0.1,0.4-0.2,0.5c-0.3,0.3-1.1,0.7-3.6,0.7H14c-2.1-0.1-6.4-1-9.4-3.5c-2-1.7-3.1-4-3.1-6.7
      c0-3,1.7-5.8,4.7-7.8c2.8-1.9,6.3-2.9,9.9-2.9c14.2,0,14.3,9.3,14.3,9.7C30.3,14.9,27.5,16.9,24.8,16.9 M16,0
      C12.2,0,8.3,1.2,5.3,3.2C1.9,5.5,0,8.7,0,12.3c0,3.1,1.2,5.8,3.6,7.8c3.3,2.8,8,3.8,10.3,3.9h1.5c2.3,0,3.8-0.4,4.6-1.2
      c0.5-0.4,0.7-1,0.7-1.6c0-1-0.8-1.6-1.5-2.1c-0.3-0.2-0.9-0.6-0.9-0.8c0-0.3,0-0.6,0.6-0.6c0.4,0,0.9,0.1,1.5,0.2
      c1,0.2,2.3,0.5,4.3,0.5c3.4,0,7.1-2.5,7.1-7.1C31.8,10.8,31.7,0,16,0" fill="white"></path>
</svg>