<svg xmlns="http://www.w3.org/2000/svg" viewBox="0 0 32.5 32">
    <desc>A diamond with two arrows leading to different boxes</desc>
    <path d="M8.9,30.5H1.6V23H9L8.9,30.5L8.9,30.5z M9.7,21.5H0.8c-0.4,0-0.8,0.3-0.8,0.8v8.9C0,31.6,0.3,32,0.8,32h8.9
      c0.4,0,0.8-0.3,0.8-0.8v-8.9C10.4,22,10.1,21.5,9.7,21.5" fill="white"></path>
    <path d="M16.1,9.8l-5.3-4.1l5.3-4.1l5.3,4.1L16.1,9.8z M23,6.5h3.5V18l-0.8-0.5c-0.4-0.2-0.8-0.1-1,0.2s-0.1,0.8,0.2,1
      l2,1.3c0.1,0,0.2,0.1,0.3,0.1c0.1,0,0.2,0,0.3-0.1h0.1l1.9-1.3c0.3-0.2,0.4-0.7,0.2-1s-0.7-0.4-1-0.2L27.9,18V5.8
      c0-0.4-0.3-0.8-0.8-0.8H23h-0.1l-6.4-4.9c-0.3-0.2-0.6-0.2-0.9,0L9.2,5h-4C4.8,5,4.4,5.3,4.4,5.8v12.1l-0.8-0.5
      c-0.3-0.2-0.8-0.1-1,0.2c-0.2,0.3-0.1,0.8,0.2,1l1.9,1.3h0.1C4.9,19.8,5,20,5.1,20c0.1,0,0.2,0,0.3-0.1h0.1l1.9-1.3
      c0.3-0.2,0.4-0.7,0.2-1c-0.2-0.3-0.7-0.4-1-0.2L6,18V6.5h3.3l6.4,4.9c0.1,0.1,0.3,0.2,0.5,0.2s0.3-0.1,0.5-0.2L23,6.5z" fill="white"></path>
    <path d="M31,30.5h-7.4V23H31V30.5z M31.7,21.5h-8.9c-0.4,0-0.8,0.3-0.8,0.8v8.9c0,0.4,0.3,0.8,0.8,0.8h8.9
      c0.4,0,0.8-0.3,0.8-0.8v-8.9C32.5,22,32.1,21.5,31.7,21.5" fill="white"></path>
</svg>