<svg xmlns="http://www.w3.org/2000/svg" height="96px" viewBox="0 0 32.2 32.4">
    <desc>Two interlinked arrows</desc>
    <path d="M5.5,23.2H1.6V1.7h21.9v21.5H12.4l2.6-2.6c0.3-0.3,0.3-0.8,0-1.1c-0.3-0.3-0.8-0.3-1.1,0L10,23.4
      c-0.1,0.1-0.2,0.3-0.2,0.5c0,0.2,0.1,0.4,0.2,0.5l3.9,3.9c0.1,0.1,0.3,0.2,0.5,0.2s0.4-0.1,0.5-0.2c0.3-0.3,0.3-0.8,0-1.1l-2.6-2.6
      h11.8c0.4,0,0.8-0.3,0.8-0.8v-23c0-0.4-0.3-0.8-0.8-0.8H0.8C0.4,0,0,0.3,0,0.8v23c0,0.4,0.3,0.8,0.8,0.8h4.7c0.4,0,0.8-0.3,0.8-0.8
      S5.9,23.2,5.5,23.2" fill="white"></path>
    <path d="M31.3,7.6h-4.7c-0.4,0-0.8,0.3-0.8,0.8s0.3,0.8,0.8,0.8h3.9v21.5H8.7V9.2h11l-2.5,2.5c-0.3,0.3-0.3,0.8,0,1.1
      c0.1,0.1,0.3,0.2,0.5,0.2s0.4-0.1,0.5-0.2l3.9-3.9c0.1-0.1,0.2-0.3,0.2-0.5S22.2,8,22.1,7.9l-3.9-3.8c-0.3-0.3-0.8-0.3-1.1,0
      c-0.3,0.3-0.3,0.8,0,1.1l2.6,2.6H8c-0.4,0-0.8,0.3-0.8,0.8v23c0,0.4,0.3,0.8,0.8,0.8h23.4c0.4,0,0.8-0.3,0.8-0.8v-23
      C32.1,8,31.8,7.6,31.3,7.6" fill="white"></path>
</svg>